<mxfile host="app.diagrams.net" modified="2024-05-02T13:08:03.157Z" agent="Mozilla/5.0 (Windows NT 10.0; Win64; x64) AppleWebKit/537.36 (KHTML, like Gecko) Chrome/124.0.0.0 Safari/537.36" etag="q2-l3dnhH31PREz2k5p9" version="24.3.1" type="github">
  <diagram name="Page-1" id="p0ibK7q0oVFSyDOmjFjF">
    <mxGraphModel dx="2284" dy="1872" grid="1" gridSize="10" guides="1" tooltips="1" connect="1" arrows="1" fold="1" page="1" pageScale="1" pageWidth="850" pageHeight="1100" math="0" shadow="0">
      <root>
        <mxCell id="0" />
        <mxCell id="1" parent="0" />
        <mxCell id="50CwbXWX_2_v5H9PCj2K-6" value="" style="rounded=0;whiteSpace=wrap;html=1;fillColor=#CCE5FF;strokeColor=#CCCCCC;opacity=40;" vertex="1" parent="1">
          <mxGeometry x="889.54" y="316" width="550.5" height="74" as="geometry" />
        </mxCell>
        <mxCell id="50CwbXWX_2_v5H9PCj2K-7" value="" style="rounded=1;whiteSpace=wrap;html=1;fillColor=#FFFFCC;opacity=60;strokeColor=default;align=center;verticalAlign=middle;fontFamily=Helvetica;fontSize=12;fontColor=default;" vertex="1" parent="1">
          <mxGeometry x="1214.6" y="409.90000000000003" width="228.31" height="157.78" as="geometry" />
        </mxCell>
        <mxCell id="50CwbXWX_2_v5H9PCj2K-8" value="" style="rounded=1;whiteSpace=wrap;html=1;fillColor=#FFFFCC;opacity=60;" vertex="1" parent="1">
          <mxGeometry x="879.54" y="407.68" width="323.37" height="320" as="geometry" />
        </mxCell>
        <mxCell id="50CwbXWX_2_v5H9PCj2K-9" value="" style="rounded=1;whiteSpace=wrap;html=1;fillColor=#FFE6CC;gradientColor=none;glass=0;" vertex="1" parent="1">
          <mxGeometry x="1214.6" y="601.8499999999999" width="228.31" height="105" as="geometry" />
        </mxCell>
        <mxCell id="50CwbXWX_2_v5H9PCj2K-23" value="India Payroll" style="shape=cylinder3;whiteSpace=wrap;html=1;boundedLbl=1;backgroundOutline=1;size=15;fillColor=#000066;strokeColor=#E6E6E6;fontColor=#ffffff;" vertex="1" parent="1">
          <mxGeometry x="996.16" y="420.47" width="86.75" height="67.21" as="geometry" />
        </mxCell>
        <mxCell id="50CwbXWX_2_v5H9PCj2K-137" style="edgeStyle=orthogonalEdgeStyle;rounded=0;orthogonalLoop=1;jettySize=auto;html=1;strokeWidth=2;" edge="1" parent="1" source="50CwbXWX_2_v5H9PCj2K-32">
          <mxGeometry relative="1" as="geometry">
            <mxPoint x="250" y="408" as="targetPoint" />
          </mxGeometry>
        </mxCell>
        <mxCell id="50CwbXWX_2_v5H9PCj2K-32" value="&lt;div&gt;&lt;br&gt;&lt;/div&gt;&lt;div&gt;&lt;br&gt;&lt;/div&gt;&lt;div&gt;&lt;span style=&quot;background-color: initial;&quot;&gt;HCM, Recruiting&lt;/span&gt;&lt;br&gt;&lt;/div&gt;" style="shape=cylinder3;whiteSpace=wrap;html=1;boundedLbl=1;backgroundOutline=1;size=15;fillColor=#ffe6cc;strokeColor=#FFFFFF;" vertex="1" parent="1">
          <mxGeometry x="10" y="358" width="140" height="100" as="geometry" />
        </mxCell>
        <mxCell id="50CwbXWX_2_v5H9PCj2K-33" style="edgeStyle=orthogonalEdgeStyle;rounded=1;orthogonalLoop=1;jettySize=auto;html=1;curved=0;strokeWidth=2;" edge="1" parent="1">
          <mxGeometry relative="1" as="geometry">
            <Array as="points">
              <mxPoint x="300" y="410" />
            </Array>
            <mxPoint x="300" y="409" as="sourcePoint" />
            <mxPoint x="520" y="410" as="targetPoint" />
          </mxGeometry>
        </mxCell>
        <mxCell id="50CwbXWX_2_v5H9PCj2K-34" value="Worker Data&lt;div&gt;HR Process data&lt;/div&gt;" style="edgeLabel;html=1;align=center;verticalAlign=middle;resizable=0;points=[];labelBackgroundColor=#E6FFCC;" vertex="1" connectable="0" parent="50CwbXWX_2_v5H9PCj2K-33">
          <mxGeometry x="0.5044" y="-1" relative="1" as="geometry">
            <mxPoint x="-173" y="-1" as="offset" />
          </mxGeometry>
        </mxCell>
        <mxCell id="50CwbXWX_2_v5H9PCj2K-35" value="&lt;font style=&quot;font-size: 14px; background-color: rgb(255, 204, 230);&quot;&gt;PECI&lt;/font&gt;" style="edgeLabel;html=1;align=center;verticalAlign=middle;resizable=0;points=[];" vertex="1" connectable="0" parent="50CwbXWX_2_v5H9PCj2K-33">
          <mxGeometry x="0.5729" y="-3" relative="1" as="geometry">
            <mxPoint x="-94" y="-3" as="offset" />
          </mxGeometry>
        </mxCell>
        <mxCell id="50CwbXWX_2_v5H9PCj2K-55" value="" style="ellipse;whiteSpace=wrap;html=1;aspect=fixed;fillColor=none;strokeColor=none;" vertex="1" parent="1">
          <mxGeometry x="-117.75" y="316" width="80" height="80" as="geometry" />
        </mxCell>
        <mxCell id="50CwbXWX_2_v5H9PCj2K-56" value="" style="shape=image;verticalLabelPosition=bottom;labelBackgroundColor=default;verticalAlign=top;aspect=fixed;imageAspect=0;image=data:image/png,iVBORw0KGgoAAAANSUhEUgAAANMAAABVCAYAAADT7tEcAAAAAXNSR0IArs4c6QAAAARnQU1BAACxjwv8YQUAAAAJcEhZcwAAFxEAABcRAcom8z8AACAVSURBVHhe7V0HdFzVmb4jWbbBGEJJYnYTSNndAAmQShpZSCPZQLLZTZxCc2Jr3psZNTdCnKbkUGzJFnLBYGOCg40tvfdmVFwxgdiwCyEcWkJJII26xoAdSZaLbEuz3/e/+55Go6myjGXzvnPumdHc/t//u/9/y3tSAUY2Xq5Vp+ycqy7MFfYgdM1T5ydr1VidLUCANyf6VqhxW+eqcR2z1Xt21qub9zaqFV31buisV08lb1TJnGGxSvYtUMmuueoBL1/vfLViZ52ajTJPZNl9CLq6AAGOLnTXqQ/33ai+DMvy830L1FYQYSuItF3IcVN/6AVJkCZv6J6H9AtT8t7sE+wVxG/d2yDlV7DOjnr1Xt2MAAGOTCSXqlNgaebsvUHdBuvRKRYFBNjXqJL7EfjZnYEoQw0kWGrZQjbUibi/7p+vlnTWqauSywPXMMARgleuU29PLlMXwhLduH+hejm5yLUcINQg5T/UwSMqiCSWS4i2QD3fVad+gr8vxPrsWN3sAAFGFuBizQJpHqPi0l2jEtNapCt5MWFPg0sCht34nilNoWEX2nIAbWLbSPADC9TdXfOUoZsfIMDhRXe9mnBgkZoE4vxJ3CoEKm4+940ko3Iz9MBqeeue9CDl1KvXkWcHrVumNHTlSDqvvLx160/m6wFJO+eqp/tuUpf88So1XncrQIA3DslaVYJ10A/33KD+QKXkbE9FTlfc1EACcZOAhKOFIAH4iXK2QaGvxeeP00PHHPWdXXPVx7bPUZ/C+ut7u+cNTgOLuBChh9aLZYrlQR35NjOQR6ydpEcf9s1Xm/FbRHcxQIBDD8zsk3oXqie5HiI5MimqF0ggKrhYEKSHsj4JAj2OdUvjjtnq3L6F6tyOG9R7dNFDBso9q6dBncsyO+uUdaARddSrP0u9sHpisXKQndaKO4vcvEB4fOds9TlddIAAww+sL87ouxEWZK7qpeJlU04osWw4eBYCf++FKzcH+WYlbVWqizvk4JkT2nMtrM+NXnsYaI3QlsHtRoDl83YAd8DS/RiTxVt1cQECHDzg0o3qu1mdh7XLX5PLsisjg8zwsAZ7G9RepP8fWJ7P4PMcXdRhA11FWKevod1/EEvpEiZjYN9kfXYr/mYfGtWZupgAAYaO5FJVBsti9cJFowuUSfkYfEuEdL2L1WqQ6mJdxIgD114HFqkNJJS3dsvUJwZv9w+kmqOzBwhQPHZco07vrldNtDTZtqXp6jEei/fdIN3dexrVhTr7iMaTtWp032J1EazQ70GmPq6rMvWPQawUiAfrVvf6teqfdREBAhSGjjplQMn2cVbOtjbyZm0o5eo9N6iLkC3k5j5ywDUcrM7lsFTruQ7kjmCmvnIy4WZLT6Pa0TFHfUlnDxAgN7pApH2LVK8cuqYplb+egDVC3DN0mXS2Ixr2RFUKIv0MfdxBK5RpAuFvvQvlFsXOHXXqEp01QIDMIJFobXiYmb7JwL97QTAs5PfD5bmj6yjc6UIfz8JksYVWiJNGav9FBvWuNd7bqHaBXIGFCpAZUI7yfQtVbyZXR3bpeMeuQe3orFNf0VmOSrzQoI4BqSJw7fq4oZIuC04qB0Co/QtV1/bZI3ejJcBhAmZcU2bjDBaJ6wW5UbBQPfSPOvVZneWoB9ZSl4Iwz2c6U/MsFNaKu4M1VAAfUJTJPQtUX7pFIqnkTAbKBMW6bsccdYLO8qZB13XqjN3z1G3eLYp0+dBCwZp3dgYWKoBnkTKtkTwiwTJdrZO/aYEJZwk3XQYRyrNQDWrv9qPc/Q2QA7RI+7JZJO7YgUhQlh/r5G92hCCLX2YiFINs2ixQXUf7ejJABtAt4TZvJovEXay+wCJlxO5GtTirhYI88X3v3jr1rzp5gKMdyYmqFIP+2/SdqsAiFQbI6pZMayjZ8XRlukwnDXA0A+uj4/c0qjtkhypFERhIpD4eWDaoWTp5gAxIwuWD9V6ciVD8uxeyxeccbrHrLAGORnTUq6rkLYO3ekksbkR0zVM/0kkD5EFnvVqW0bpz4waT0vbr1Sd10gBHG7oa1Zkg0YuDNhzg7yeXiCI066QBCsDWGWoc1pXynr/0dSfvLe5qUPfvvE69XScPcLQAVmcMSPMgF8+pg87AA9me+erVzgb1CZ08QIGATL8B2e3jPcZ0QtEDwOctOmmAowFyM3quqty/QB1I9/G5cwe35JUdc9T5OnmAIgHX+dLeBaqLN0VSZcs1KLyAzs656j900gBHOjoXqZM767LMnstUsnOOmq6TBhgiYKF+pS2RHyhrrqm66tRzOlmAIx0g0kKegaRvOuwDuXY3qk3dN6hTddIAQ8SeevVeWKLfc8JKlTE9gQM3qh5YrwqdNMCRCr6xZ898tT19kOmC0C15eY46TScNcJDYWac+K++WSJm0aJ34yD/c6Ue3zlVv00kDHGng+xs669VmDjB37FLJxN8wW87n49s6eYCDRN+tajzWn+08f0p1p2W3FL+BbHU6aYAjDbvmqq9yG5yvr0ol0v4F4vK92tGg/kUnDTBM2DlbfQFeQE/6g4UcB5Cqo2P2wb8jMMBhANZK9/IMJHVQeaDI+3hwRb6okwUYZkDuNek3TOSqEb2BOjVXJwtwpKBrjjp/d6PaLsRJGVRuRGBA730jXwb5ZkP3tepUrEef4QZPquwPQPaYzB7ZOT84yD1iwPeAd85T1+hbDf5gypWhxWp/d2Nw7nGosbNeTe+7WfWmWidZO92skljHXsn7fTppgJGMzkb1vl3zVBd37LyBZJCdprnqzuB/wR56wM07DkR6hv/cLXUMxFrVq7+9GZ9aPiKxvUGdLRsPKSfyPO/YO1/1ds5RM3Wyw4va2hJlPFzmh4n2yHM7a5Mlo6PWdFW1dkmoev2ScZXOd6XdBQIWKMGHBlOtkzw/Vq92dtSqk3SyACMZO+rVOUkMYiqZ+GpjDO7+voYRMohh5yJVteE5ZdjPqcq1z4VMp/2sWntkbdMbViQ0/e6kmnpXUk37dTJUua5XheNf0LF5satBnccbEKnjoHf19vCfCuhkAUYyOOt1zlVtXDNxMCXcJGRaNGI2HsLxb6hp9yRVRXtS1WxKlprOC+f+aO3IevWwaf2YJFKm44aaO5Oq3PovHZsXfXVqPIjTnj4OWMfOh6sdnO8dKeAt8T2NasWBBerB3kXqwT0NI2xL1oh/HZbJVdKKNcnSiP3sh65q+ycdOzJgWFerqZv6yVS1PqnC1td0bEEgabB2vZ3jcADjsOsGNS+ZDDYfAgwn3iRkChDg0CMgU4AAw4SATAECDBMCMgUIMEwIyBQgwDAhIFOAAMOEgExHMWo3j1Ixe4KKrZugZm6eoKYsK+6mAPNJQBkzfzdB1daO0jF5cfLkW8dLnQyTlr9F/1wcjKVlUq/0ISXMRJumWAd/64Fls30ZcKKx9ASJ8+tE2gvy9P9gyHT5irf58p6yemg3sKust/rjJUF/T8Vwk2lymzvOfp263intxffhkqXH+mVR3kPBNxuOcXVm3YRjUc7pk5YP053NWOsHVSTRrSLxbhVt7Vaxtr8pw/mojs2NsD0DCtENgbuhci3KaWlFeXkfU56AQS2JtTyqYu2ok/W2P1twvcDba5reVRJbcwXa3aYqUK/XBi9EW7pR3t9U9Z3fV5euKv4KS8w+Thn2Lapyndsv05mtqhaM0bFqVHj1x0sr2p4QmXl1Sv8TbTn7P1QyhZsuwti8ljJWu1TEmaxj84Pkq9loKtPehjHqb7OJsvhZs/EqZa5y3xVuNP1wWMgUsT6nqjZegTofkXH260RgPwy7E2NXM6rc+YzOkRvlLf8WirU/4JfFsTGabynqfqMQuW2LqzPx7pLKNd1l0eYrdexBwmw5D41KooIkFDCpZmxOhkznNh2bHdOsYyCM10XQ0VY3xBB4nyvc/DGdKjNoDU2nXa6p6LyhaXcnQxHrWp0iN6JNnyqpbH82xLoq17rt9trgB/zGPvFaTOW6h6GAP9S5C0O45b0YNCg8AuVjOj3yO/odiiSWo/ztbt9T6mZ9TGtY2d9oOhQyTWn+CvrZKWWzvmrkj7b0oZ7LdYqcGAt5QXEeU9N/445RJnlNvwefib+LsplWWMbxYMhkWN9Ge3tE/pRhxjFCQD2hWBsnvxt0zuzgmETbnnX1huMLvQHpx8Scwh6LJ+kMZ4mCrrntQZh5H8bLLk43ssJo+aQMjic4KFBJLP738TXW+3SKjBgVtWeFKtb2QkmTbkgguAqiws40lUxmvzrCi50miEghs85K5DHjTwpBcwFllpj2lVDmf8gAMy/rZfsp4NQgBEC7TNtVhmr8Vm79QpeUH+XWuyHk/b7QzfhOKNkX0cc7RCnZT4mjUuCTMpDZPL5AJotsKJZM5c1fQh27ZdIw0BfWW7l2J2bkr+oUOXGMaZ1XUgGLJnUiP9vJNldvHCwvfhrO7xCWS32eThRJplKj+Voofa+ML9ucqT6ZiPA7y/cmPcP+ZV4rU25NF5Jy3JkX5YZM60EdmxvGr09AHZ1+vfysXPcqxmyY/h1ORcvJaFibqpLZ12+g3G7OBdNaqKa6lyFDUDoo+R5RXg626WzVqbLDsJ7rJ9NalOE8rWOyY8rqL4J4+6QODhIHgcphWFfBpYDLlxJoXdkPxlOJqPAcxHKsBwpBKpnYRhk81oXfWI4rK+222LtCbNNVmOXCzk91CZlROJlCykh8Ge4ILFIKkWKte1BHYQ85VqDcCMiROllGWg6EDGs7fq8YIC/DvkHkSSWnRWZ9Xp5iyGTal4mye0SSSc15HfoyJbU+jPcv4AF1a31xx4nW0LAW65IyYyIm4rC1S9rKfEKI9dsKIkQ0/h6OlU8mTrCGdZ+OHSYY8Z/03xJGpzh4YbgGWXD8NOskWIc1ImSZwex7Q0bzXBk0CBGD9fJpP1yXfZ1CN4huknQK9SHPmIg1X8dmBtsTbXnFtWIkh8wq+1S5/T2dYhBC0dbZWAv0EwoDi9+eE1cmH9LJJANHC5TgIwlbSqLxb7v+tz3hxGjTO8vY/khipSy2c6FQMk1cekLItGFRIGOZOKCcFWs71ORVX9cp8sO0E+LSeO2XWdzZgnZmXtNFWqKQEV2u/jwMhZIp0vwBktUnEolS0b4dZVyoUwxEVeIdsIJ3Sfmsh/mira+KO5cFpxpLjy0xrM39lhP10FPg+j0fTHsl6uqTfNSJ2JpekLxRxw4PxsXsGSVVa/tcpWOnIATDXp3NXSmNNH8pxFmfaTnzhO1NYh04Y6MMun+jYk72/yphWCt8n5wzPmcZI36Gjs0Mw1rvKwbbyXpzEMlH2FqGtBAa8lHwaOOYqLPiyymbCRmRkUwyo3VgdjxOpyoehZLJSFzvKgz6yjbIhGOX69i8KINiw/3ZKgoqbaecW/tKI02X6CSZYdi/7VdUHQolk2H/yicGZVXRvksmzhw4sdo+rbSi5QW4hW4+TuqRONZPOZYJ9JoqN+gxRXCt229z7nDy4caIs1G8FWmfHtfIiuF9p99ZMfs4zIJ/dGd9No4zi7NDTGomUECVFJpWasNei4b+iM/nSP6pVPr4jTr1YBjWIn+3KCKzfY+KNp2pYwdhfFXTp0qjide1Muv22U/DKhSm1NGWe3wFhhAxs/Womjxb8elk4kxLMnPSKOKp00EohEyGVedOTK5rWQLlHh1pLu5F+Fy3pm4iUGZh6wFoVe62yw6cHlsvbyFkogsVbd3mk7eC3k3zOh2bE6GIdZs7UULGlHesrQN5P6yjB4Nra3pGnrvNybVqbbIskviATjEYfI6seuOufoPBCdx+Qo4Khh1h+1F/RnLJ9AIGffDsDWuFNdIvZTbgYFPBY87nRcmm6s5BkKVR52HOOjqXjwmx+OmlEecRn7h0DQ3r1ox1eTCdb/UrBpX6HuaJ6Nj8MKwWf0aiMDFDj4o0T9WxmZFOJvY31v443M2sLkhByECmc6dZ/Q8HRpzrxZcXItGSboKSWJvPq1p5vE5RGMoTVQPIJHIuYNPiKripJibH1DV0IWQyYE28pQJlTHmFV39cx+ZGzD4f6beJLnleh7E65zHJ2EjT1aGKdnhT7oTD+kDKRTp6MEwnZYdST4wRq/CjhaIQbv6G2xk0Tpi+fj8aeZ2O7UfVs2OgZJ3iw3tkql5zmoquOhGK94TMSGhwCGuV0ormL+lcPkCkS0L+Ah6d4pbsFCv7op2Hsob9k373AXVWru+Ashf85Cfa+QH0ZadPDHftgFk6B9LJxDYb1h06dujIQKaPz+LhJSwGz7I8i0RLKN9bHpLD2iLAQ8hS01rly0z6zDqtb+okuRFuqlTTUohYEJnglvrehiaT0fzvOjY/wtZTojsy2bVzMp6oYzLiHdOWnYTx2C16yDqRNxSJP//WTOthunKmjbWyt2mBMa1a/49Cd0SLxxS4WR5BWKHL4sHnTXT9DOclNy1cpojTPSZmuW9INazf++6fDKQ1+IWPRuvnfWUCEUOV7dtHR5qy705NWj4BirVXSMs8MsPaG3RsYZj8v+ORp8Mvg/Ub1j06NjPSyUTLZjiOjh06MpCpwbKOGQ3lkXUo3V7G0WWOtT2kzF8V/Uj7+Ij1Pkxa/WMp5XECs76lk+TGEG5AYHJaOMDtkrW0dYGOzg/D+ZMQkPlpZUz7yZzHK1xTRZzFvseBUII2j2bb0xFOnIqx7B04Mdp36thDAJ5+m/FXUpV2lGklPtGQdvZjOteo6vX7RGCwPiGzud7fqKA7JZbJnZkgkPtBhv6rGvJmnrghgmYdcCVC4TxnBFxUGg5P/P124e/iBGGsOQXC6z9fEGW279axmfGGkAnucMR+/J1TnfeHovHHfWVyJ6r7lbHqFJ2rOBirzpAx8MjEw81I/PVR+Q7TPRRJpgk1TWeOjTmv+fLFMgF/P316Teu7dJL8SCMTZP/X3GQCwtbZWJq83j8BcYziS9LPK0dHrIWhyjV9IhMGeUGMdZOOPkQw7Vn9QownR1e29p5U2TzwrTSGc7trteiicdHY/AMdw8Xr+4RkHETX/L424K4eNzoMe5tvbl2//CEdmxkumeCiHYVkQtmYcF4oMe2/+BOM5yKVr/qIzlE8OA5SliYTyFBiWL+eWOhbkIq1TLGW82Us2Xamp1WNFHgrwcNgMj2bl0yE6SzzzjulfuoWt+hTwa10Eo1pqAP0dKgThxSG8ws1A2sYEoUVU4GiiYt1rHtfLRJPiEKjUaFIYscY7v54YCeEILpT0ZZtqnzFu3WsUjM2jUO5r7odxkAz5Fv7HM1kghxApGfKInZCyOQpIyzWKKO5RecoHulkoszCdquOzY9iyWTGPy0bSj6ZZLIdvN7OhSGSqcSM/wzt2y91C5kwiYctX2fp8sLq/8XfZaTuGdafVTTHOeiwIAwrVLn2/+gWeELEQrZf2SlQClbiqBDcak0BbwGb9n2+UGQBbS3XsRAYNxOcrQPIZKzJ/X+SjmYyQU5Y2zw1cY59Asqu82XLdvIyZ7SINUcqhExULk0mktO0Hv3grAK3gYsk0/ga5+NlFZCTRyb0ryzqOOfMWDFOJ8mPoVom977dS35e7kiHrT/oWBA9YfqWi4FeVdi6QsceYvB6RbUeVLAZbshDUMZjJW5y0+dFmRnH9U7EuUt+T0XYjvlbkBwQ3ur14M4iPSJ0Kikvypp5/OrwylOlLE+paa7D9hodWxhGNJnsZ2O1sPjoZyja0iPK4N8eWNOByaT4/9phxM8IcUL0lBukKqts6zmpqin3FTEPRZKJpCmLYL3sTQaorzTWsv+YQrfGiaGSiSi3wiI3sUxt9JheOanKOkvyU+dSN0aqNvC2fe6D62GD6TzmC4UWhCf+PAOamCyFJWpwG50AyeJ94yoSgwZ6VLR5VkjOG6AQTBtre0AUk6AyekSjX21Y03OedBOXrTwegt0wQNCx9qfQlrN0ivy4HO7lgN08EgMWNBfeQDK5h7aQQyTxNcjMtcIklMivvQNpM1/HyYLjpyw7qSRsbXI3g1APg6tQhe3mhZtnFOXmEWbiGj8PlVbWgE2Ftzts/3HIZOIBb6qbKdv68VnqAnk6oad/DLmL57Qf1KF7UeB5UyThXi0Sdyz+mpwST9o8FgTZI7+5V1PQsMEu2thY/PRQtPVJLRD3NoThnhmUGs2WO6j4nfepeNBbCHg+IqYa+Vim5LUNHZsfEedaKJbrV8tuztq+kGnlfszkDSeThtH07ZBYf7aVhFqXLInE/3G8d/xQKMJ0b/TEJe1HmYWcq/DhRtO6xp/NGQoiU3yhuyGFNlPOHP9ctxhSwQNpM2VdUyyZJL+zzr2Bg/rR3lFYh46tsD45YAyrNvSCtMXdJDkolCfeIQPp+dvVG0Es3QDDcnfi5IaE/TjSZD5MNOz7+91BfJYnPnH69PgZZZWtO2TWZahav1VF89xM92BYX4aA+UCZLpOD69w2YNs9F0xYNhE08nIi4Ge+mwyHiUwn1Cx/S4lhPSmzKNNQOWRGtYt7M225c/WAS66uguW/DAq5hExnt7/drPPmJxOsXtU692DcIxMfMiwEUR63bBp4164YMhFRyLVyfZc3XugDx2sv5OdebO33sjKvG/n8Vc3dJvL8t/7l4DEGSlTCSj0lcmeoZeicgU7uFYWmYoatqM4yCGOi9q/kkQSSUj6dVejUlaKQMnNQmeCGFAr3+ad7fQVjG7hr8/2V+V09eVH+upddF4+KuZE7aFtSn5rNiMNlmQhOaLH2R7TsXOWUPC0/0yny4oRK63Mlsbb++4xQJpD0xVO99W82RO2PuB6JnnQYCiETwTNDuqa6b2j36zJ2eYC19xpXN3R9zFssmYAQJ/jUIwZv7BiETPZz/vrfAzdJDCeCNPXwfuagjLmQwffzPltXEORgFbOaN5Ozk5HEIpjHle46BwrJK0CmM03nGITR3E0yHPfEmZ3gbgt3VTzlEKtl5z5fSkOJac0UYnsConWsaH8IpMx6Q+A4Y9UpEM4Lsl3PdtM15cNg0fhndZLsOJxkIqbcfmaIdXuTAL+LwsEFKxDo+8O+ksoEREJBUbKBm0Gx9idcxUMeLxRIplKz+Sv9j7ywf2t7Q7HWxDtyKWbYqoYcYJV0Hsk3NDIdE7O1jqWU5QXqXHnzZYPW6Lz5w3t7nPCn3nWNXCgOW5WqWLc6G0oMp0IeCZdGyGAsxAx/k3xnYyvanpTt12wQV9He55OJN9L50BjzclAjLVi/2N/RqQuHYV3vDhZnTVoZuj/OE3Jj+XLMMKkhbF0cql6/xScDAycBw7Z0ablxuMk0sXZ0yGy+UdY9Xn/RlhAUe2yMSlEATOe7IcrfszK05rHWbWVR6+cn8C5lqrzMtrNQvvtIOMkj/UadzFeoZeKzXGYi7rv4CLyHGYrYbXJ3M6W+cVgihHj3k+1j+e4BvhuGSCa4tu9XsZZ9fn/9AHJVrtsvTy2nYlLrWzCmFe7/ynKWjKuwLsUEtF4IZ8ZrhsU6va3aOac0mnhehO8KZikqu1W+y5UNK/c5z0S7NMRn7WVQxM14EaFRBMdBClsH1BW3n6xTF4doYp4MOH16WhuZiZztaN/WAYG7OP6sDGGKuxp/BO15py4pNw43mQQY1EjL4gGKxiOJWNsjqgaKkAe18DJQ/haXkJCBWOe2ZMhd6L+SJi+uJzi23JzZGOKDiV7fCyUTcGx45anQnef6Nz9QrztGA+sznFfld6nT+RPq+02/RRsimXiOaWLSn643qzyZye2HuI26Brr2U+7kZdmr9fnnfLRhJfo5e6JtlyLfNYNcwiGDW8dUIApU3DQb6w58d8m1UafKDq6p5FEJdIpC8g6CQa4y095xMh+pHhpCKtw8W3a82D4hKMrmZ2oQRUC9HCz68RXtD6rJqwuvkxsUJKy3YSFkhG9/sBhEJufPZ/8AljwLzqqtHV0asZ4RhfYURIiN8SnkWRxa7Yp2dy0hZSA/5ZIuL7rwiB8Via+UfKb9oIw1x4/E4C5vgTiOj1REWy3Jx3ppKdLrY0B9oVj7XrlFY9inSfu894gY1ktFk4kotz+I/r4g5UtfEWru7IMOL9EpBoJuXtiZXBLDsqX8jg/Cit6MJUUN9PdsnWIYYNo3qxlb3INXukcMPD9yO/whnSo7ypv+E0pzQPJxoFgOP69+AAPm/HRiMa9nyoCxVYmrS6rWb4aQdshWOctODdxK56BUrLlPVa75urpsQXHPA/Gmcdh6Xs3c7CrTzC08pM7+vEyh4K7RD+532zjzPt66f+kj03PfEys1HchyXY8vS4YfPQRFyXPw7OHSm04sibZOgSx+J0Rmf3w56e9VGx7DuFbzsXDJw6dm0Wc1A7Ll2deU5k/L74Vi4sRSTEZLSyrXPMqHG2U8Uut0n316Wk2+/aOiC1w2RFtf49uxRO9gHYdEJsKwfuc+vQAiCani27Kurel+ms7MMTE+77Tx4rKYMxl9ryr4wdOCII9aoFAzMU2e2mTgd6O5KusTuOmga1C9oT8/Q/UmlJHnEfViwKd+WWZqHQyxtmkYoIN7+IsHwyxb9/u46UO8xZ0Kvt+gcp3bRn7qM7i84OLel6Xl5g1bl+rYwsDNpUg8qmKpY6o/uZZJxTexXjCap4IETFPUoXEqLqldeuyYaHyKjEdqnRLSFDza/DGpj2kP5gWivDzt7epxqWLYL/L/9OrYjDi20roY7uBPxvFB1wABAig1vqLl5JDJq0ncooc7K6Syr8x70yZAgAADMcqwpodquCblZgbXzHD3hnphOECANzOwBm3Vm2TuRk00YSm+0z5AgABFgM/jeTcwGKbdzaOH/K9dDhAgQAqiLT/zj3L0xkMomnh2LLfcAwQIUAD4BqTqjQtlo0GIxHPNhGy/l0WsSTpVgAABsmLS8rEhvuU32topZ1jcbPBuxMg78VoWy/Z+gAAB8oC30XmPjofA4ta1yYZDSaztRRWJ1+pUAQIEKAh86yt37sTFa9taVtH6G3liIUCAAEVCXqbCWzpOPd98dUG+f4EaIECAkQSl/h8mmq15k1yedAAAAABJRU5ErkJggg==;" vertex="1" parent="1">
          <mxGeometry x="41" y="392.7900000000001" width="80.5" height="32.43" as="geometry" />
        </mxCell>
        <mxCell id="50CwbXWX_2_v5H9PCj2K-58" value="&lt;b&gt;&lt;i&gt;&lt;font style=&quot;font-size: 24px;&quot; color=&quot;#0000cc&quot;&gt;BIPO&lt;/font&gt;&lt;/i&gt;&lt;/b&gt;" style="text;html=1;align=center;verticalAlign=middle;whiteSpace=wrap;rounded=0;" vertex="1" parent="1">
          <mxGeometry x="1121.41" y="338" width="60" height="20" as="geometry" />
        </mxCell>
        <mxCell id="50CwbXWX_2_v5H9PCj2K-60" value="&lt;span style=&quot;font-family: Helvetica; font-size: 12px; font-style: normal; font-variant-ligatures: normal; font-variant-caps: normal; letter-spacing: normal; orphans: 2; text-align: center; text-indent: 0px; text-transform: none; widows: 2; word-spacing: 0px; -webkit-text-stroke-width: 0px; white-space: normal; text-decoration-thickness: initial; text-decoration-style: initial; text-decoration-color: initial; float: none; display: inline !important;&quot;&gt;&lt;font style=&quot;&quot; color=&quot;#333333&quot;&gt;&lt;b&gt;APAC PAYROLL SYSTEM&lt;/b&gt;&lt;/font&gt;&lt;/span&gt;" style="text;whiteSpace=wrap;html=1;" vertex="1" parent="1">
          <mxGeometry x="1089.79" y="368" width="150" height="10" as="geometry" />
        </mxCell>
        <mxCell id="50CwbXWX_2_v5H9PCj2K-61" value="Cambodia Payroll" style="shape=cylinder3;whiteSpace=wrap;html=1;boundedLbl=1;backgroundOutline=1;size=15;fillColor=#000066;strokeColor=#E6E6E6;fontColor=#ffffff;" vertex="1" parent="1">
          <mxGeometry x="1092.91" y="420.47" width="86.75" height="67.21" as="geometry" />
        </mxCell>
        <mxCell id="50CwbXWX_2_v5H9PCj2K-62" value="Singapore Payroll" style="shape=cylinder3;whiteSpace=wrap;html=1;boundedLbl=1;backgroundOutline=1;size=15;fillColor=#000066;strokeColor=#E6E6E6;fontColor=#ffffff;" vertex="1" parent="1">
          <mxGeometry x="896.16" y="420.46999999999997" width="86.75" height="67.21" as="geometry" />
        </mxCell>
        <mxCell id="50CwbXWX_2_v5H9PCj2K-63" value="Thailand Payroll" style="shape=cylinder3;whiteSpace=wrap;html=1;boundedLbl=1;backgroundOutline=1;size=15;fillColor=#000066;strokeColor=#E6E6E6;fontColor=#ffffff;" vertex="1" parent="1">
          <mxGeometry x="899.79" y="494.08" width="86.75" height="67.21" as="geometry" />
        </mxCell>
        <mxCell id="50CwbXWX_2_v5H9PCj2K-64" value="Indonesia&lt;div&gt;Payroll&lt;/div&gt;" style="shape=cylinder3;whiteSpace=wrap;html=1;boundedLbl=1;backgroundOutline=1;size=15;fillColor=#000066;strokeColor=#E6E6E6;fontColor=#ffffff;" vertex="1" parent="1">
          <mxGeometry x="996.16" y="494.08" width="86.75" height="67.21" as="geometry" />
        </mxCell>
        <mxCell id="50CwbXWX_2_v5H9PCj2K-65" value="&lt;div&gt;Vietnam&lt;/div&gt;&lt;div&gt;Payroll&lt;/div&gt;" style="shape=cylinder3;whiteSpace=wrap;html=1;boundedLbl=1;backgroundOutline=1;size=15;fillColor=#000066;strokeColor=#E6E6E6;fontColor=#ffffff;" vertex="1" parent="1">
          <mxGeometry x="1092.91" y="490.47" width="86.75" height="67.21" as="geometry" />
        </mxCell>
        <mxCell id="50CwbXWX_2_v5H9PCj2K-66" value="Maly&lt;span style=&quot;background-color: initial;&quot;&gt;sia&lt;/span&gt;&lt;div&gt;&lt;div&gt;Payroll&lt;/div&gt;&lt;/div&gt;" style="shape=cylinder3;whiteSpace=wrap;html=1;boundedLbl=1;backgroundOutline=1;size=15;fillColor=#000066;strokeColor=#E6E6E6;fontColor=#ffffff;" vertex="1" parent="1">
          <mxGeometry x="899.79" y="567.68" width="86.75" height="67.21" as="geometry" />
        </mxCell>
        <mxCell id="50CwbXWX_2_v5H9PCj2K-67" value="Philippines&lt;br&gt;&lt;div&gt;&lt;div&gt;Payroll&lt;/div&gt;&lt;/div&gt;" style="shape=cylinder3;whiteSpace=wrap;html=1;boundedLbl=1;backgroundOutline=1;size=15;fillColor=#000066;strokeColor=#E6E6E6;fontColor=#ffffff;" vertex="1" parent="1">
          <mxGeometry x="996.16" y="567.68" width="86.75" height="67.21" as="geometry" />
        </mxCell>
        <mxCell id="50CwbXWX_2_v5H9PCj2K-68" value="Taiwan&lt;br&gt;&lt;div&gt;&lt;div&gt;Payroll&lt;/div&gt;&lt;/div&gt;" style="shape=cylinder3;whiteSpace=wrap;html=1;boundedLbl=1;backgroundOutline=1;size=15;fillColor=#000066;strokeColor=#E6E6E6;fontColor=#ffffff;" vertex="1" parent="1">
          <mxGeometry x="1092.91" y="572.43" width="86.75" height="67.21" as="geometry" />
        </mxCell>
        <mxCell id="50CwbXWX_2_v5H9PCj2K-69" value="&lt;div&gt;&lt;div&gt;Bangladesh&lt;/div&gt;&lt;div&gt;Payroll&lt;/div&gt;&lt;/div&gt;" style="shape=cylinder3;whiteSpace=wrap;html=1;boundedLbl=1;backgroundOutline=1;size=15;fillColor=#000066;strokeColor=#E6E6E6;fontColor=#ffffff;" vertex="1" parent="1">
          <mxGeometry x="899.91" y="639.64" width="86.75" height="67.21" as="geometry" />
        </mxCell>
        <mxCell id="50CwbXWX_2_v5H9PCj2K-70" value="&lt;div&gt;&lt;div&gt;S. Korea&lt;/div&gt;&lt;div&gt;Payroll&lt;/div&gt;&lt;/div&gt;" style="shape=cylinder3;whiteSpace=wrap;html=1;boundedLbl=1;backgroundOutline=1;size=15;fillColor=#000066;strokeColor=#E6E6E6;fontColor=#ffffff;" vertex="1" parent="1">
          <mxGeometry x="996.16" y="639.64" width="86.75" height="67.21" as="geometry" />
        </mxCell>
        <mxCell id="50CwbXWX_2_v5H9PCj2K-71" value="&lt;div&gt;&lt;span style=&quot;background-color: initial;&quot;&gt;Hong Kong Payroll&lt;/span&gt;&lt;br&gt;&lt;/div&gt;" style="shape=cylinder3;whiteSpace=wrap;html=1;boundedLbl=1;backgroundOutline=1;size=15;fillColor=#000066;strokeColor=#E6E6E6;fontColor=#ffffff;" vertex="1" parent="1">
          <mxGeometry x="1232.9099999999999" y="418.11" width="86.75" height="67.21" as="geometry" />
        </mxCell>
        <mxCell id="50CwbXWX_2_v5H9PCj2K-72" value="&lt;div&gt;&lt;span style=&quot;background-color: initial;&quot;&gt;China&lt;/span&gt;&lt;/div&gt;&lt;div&gt;&lt;span style=&quot;background-color: initial;&quot;&gt;Payroll&lt;/span&gt;&lt;br&gt;&lt;/div&gt;" style="shape=cylinder3;whiteSpace=wrap;html=1;boundedLbl=1;backgroundOutline=1;size=15;fillColor=#000066;strokeColor=#E6E6E6;fontColor=#ffffff;" vertex="1" parent="1">
          <mxGeometry x="1332.9099999999999" y="418.11" width="86.75" height="67.21" as="geometry" />
        </mxCell>
        <mxCell id="50CwbXWX_2_v5H9PCj2K-73" value="&lt;div&gt;&lt;span style=&quot;background-color: initial;&quot;&gt;Australia&lt;/span&gt;&lt;br&gt;&lt;/div&gt;&lt;div&gt;&lt;span style=&quot;background-color: initial;&quot;&gt;Payroll&lt;/span&gt;&lt;/div&gt;" style="shape=cylinder3;whiteSpace=wrap;html=1;boundedLbl=1;backgroundOutline=1;size=15;fillColor=#000066;strokeColor=#E6E6E6;fontColor=#ffffff;" vertex="1" parent="1">
          <mxGeometry x="1232.9099999999999" y="607.0699999999999" width="86.75" height="67.21" as="geometry" />
        </mxCell>
        <mxCell id="50CwbXWX_2_v5H9PCj2K-74" value="&lt;div&gt;&lt;span style=&quot;background-color: initial;&quot;&gt;New Zealand&lt;/span&gt;&lt;/div&gt;&lt;div&gt;&lt;span style=&quot;background-color: initial;&quot;&gt;Payroll&lt;/span&gt;&lt;br&gt;&lt;/div&gt;" style="shape=cylinder3;whiteSpace=wrap;html=1;boundedLbl=1;backgroundOutline=1;size=15;fillColor=#000066;strokeColor=#E6E6E6;fontColor=#ffffff;" vertex="1" parent="1">
          <mxGeometry x="1342.9099999999999" y="607.0699999999999" width="86.75" height="67.21" as="geometry" />
        </mxCell>
        <mxCell id="50CwbXWX_2_v5H9PCj2K-75" style="edgeStyle=orthogonalEdgeStyle;rounded=1;orthogonalLoop=1;jettySize=auto;html=1;curved=0;" edge="1" parent="1">
          <mxGeometry relative="1" as="geometry">
            <mxPoint x="889.54" y="342" as="targetPoint" />
            <Array as="points">
              <mxPoint x="759.54" y="401" />
              <mxPoint x="759.54" y="342" />
            </Array>
            <mxPoint x="699.54" y="401" as="sourcePoint" />
          </mxGeometry>
        </mxCell>
        <mxCell id="50CwbXWX_2_v5H9PCj2K-76" style="edgeStyle=orthogonalEdgeStyle;rounded=1;orthogonalLoop=1;jettySize=auto;html=1;curved=0;" edge="1" parent="1">
          <mxGeometry relative="1" as="geometry">
            <mxPoint x="889.54" y="350" as="targetPoint" />
            <Array as="points">
              <mxPoint x="779.54" y="457" />
              <mxPoint x="779.54" y="350" />
            </Array>
            <mxPoint x="699.54" y="457" as="sourcePoint" />
          </mxGeometry>
        </mxCell>
        <mxCell id="50CwbXWX_2_v5H9PCj2K-77" style="edgeStyle=orthogonalEdgeStyle;rounded=1;orthogonalLoop=1;jettySize=auto;html=1;curved=0;" edge="1" parent="1">
          <mxGeometry relative="1" as="geometry">
            <mxPoint x="889.54" y="360" as="targetPoint" />
            <Array as="points">
              <mxPoint x="789.54" y="519" />
              <mxPoint x="789.54" y="360" />
            </Array>
            <mxPoint x="682.8000000000002" y="514.3899999999999" as="sourcePoint" />
          </mxGeometry>
        </mxCell>
        <mxCell id="50CwbXWX_2_v5H9PCj2K-78" style="edgeStyle=orthogonalEdgeStyle;rounded=1;orthogonalLoop=1;jettySize=auto;html=1;curved=0;" edge="1" parent="1">
          <mxGeometry relative="1" as="geometry">
            <mxPoint x="889.54" y="370" as="targetPoint" />
            <Array as="points">
              <mxPoint x="799.54" y="560" />
              <mxPoint x="799.54" y="370" />
            </Array>
            <mxPoint x="699.5399999999995" y="560" as="sourcePoint" />
          </mxGeometry>
        </mxCell>
        <mxCell id="50CwbXWX_2_v5H9PCj2K-79" style="edgeStyle=orthogonalEdgeStyle;rounded=1;orthogonalLoop=1;jettySize=auto;html=1;curved=0;" edge="1" parent="1">
          <mxGeometry relative="1" as="geometry">
            <mxPoint x="889.54" y="380" as="targetPoint" />
            <Array as="points">
              <mxPoint x="809.54" y="607" />
              <mxPoint x="809.54" y="380" />
            </Array>
            <mxPoint x="699.5399999999995" y="607.3000000000002" as="sourcePoint" />
          </mxGeometry>
        </mxCell>
        <mxCell id="50CwbXWX_2_v5H9PCj2K-80" style="edgeStyle=orthogonalEdgeStyle;rounded=1;orthogonalLoop=1;jettySize=auto;html=1;curved=0;" edge="1" parent="1">
          <mxGeometry relative="1" as="geometry">
            <mxPoint x="889.54" y="390" as="targetPoint" />
            <Array as="points">
              <mxPoint x="819.54" y="667" />
              <mxPoint x="819.54" y="390" />
            </Array>
            <mxPoint x="699.5399999999995" y="666.9000000000001" as="sourcePoint" />
          </mxGeometry>
        </mxCell>
        <mxCell id="50CwbXWX_2_v5H9PCj2K-81" style="edgeStyle=orthogonalEdgeStyle;rounded=1;orthogonalLoop=1;jettySize=auto;html=1;curved=0;" edge="1" parent="1">
          <mxGeometry relative="1" as="geometry">
            <mxPoint x="889.54" y="333" as="targetPoint" />
            <Array as="points">
              <mxPoint x="759.54" y="339" />
              <mxPoint x="759.54" y="333" />
            </Array>
            <mxPoint x="699.54" y="339.1999999999998" as="sourcePoint" />
          </mxGeometry>
        </mxCell>
        <mxCell id="50CwbXWX_2_v5H9PCj2K-82" value="&lt;b&gt;BIPO API Endpoints&lt;/b&gt;" style="rounded=1;whiteSpace=wrap;html=1;fillColor=#FFCCFF;strokeColor=#E5CCFF;" vertex="1" parent="1">
          <mxGeometry x="790" y="319.18" width="79.54" height="76.82" as="geometry" />
        </mxCell>
        <mxCell id="50CwbXWX_2_v5H9PCj2K-83" style="edgeStyle=orthogonalEdgeStyle;rounded=1;orthogonalLoop=1;jettySize=auto;html=1;entryX=0;entryY=0.75;entryDx=0;entryDy=0;curved=0;" edge="1" parent="1" source="50CwbXWX_2_v5H9PCj2K-89" target="50CwbXWX_2_v5H9PCj2K-131">
          <mxGeometry relative="1" as="geometry" />
        </mxCell>
        <mxCell id="50CwbXWX_2_v5H9PCj2K-84" style="edgeStyle=orthogonalEdgeStyle;rounded=1;orthogonalLoop=1;jettySize=auto;html=1;entryX=0;entryY=0.75;entryDx=0;entryDy=0;curved=0;" edge="1" parent="1" source="50CwbXWX_2_v5H9PCj2K-89" target="50CwbXWX_2_v5H9PCj2K-132">
          <mxGeometry relative="1" as="geometry" />
        </mxCell>
        <mxCell id="50CwbXWX_2_v5H9PCj2K-85" style="edgeStyle=orthogonalEdgeStyle;rounded=1;orthogonalLoop=1;jettySize=auto;html=1;entryX=0;entryY=0.5;entryDx=0;entryDy=0;curved=0;" edge="1" parent="1" source="50CwbXWX_2_v5H9PCj2K-89" target="50CwbXWX_2_v5H9PCj2K-133">
          <mxGeometry relative="1" as="geometry" />
        </mxCell>
        <mxCell id="50CwbXWX_2_v5H9PCj2K-86" style="edgeStyle=orthogonalEdgeStyle;rounded=1;orthogonalLoop=1;jettySize=auto;html=1;entryX=0;entryY=0.75;entryDx=0;entryDy=0;curved=0;" edge="1" parent="1" source="50CwbXWX_2_v5H9PCj2K-89" target="50CwbXWX_2_v5H9PCj2K-134">
          <mxGeometry relative="1" as="geometry" />
        </mxCell>
        <mxCell id="50CwbXWX_2_v5H9PCj2K-87" style="edgeStyle=orthogonalEdgeStyle;rounded=1;orthogonalLoop=1;jettySize=auto;html=1;entryX=0;entryY=0.75;entryDx=0;entryDy=0;curved=0;" edge="1" parent="1" source="50CwbXWX_2_v5H9PCj2K-89" target="50CwbXWX_2_v5H9PCj2K-135">
          <mxGeometry relative="1" as="geometry" />
        </mxCell>
        <mxCell id="50CwbXWX_2_v5H9PCj2K-88" style="edgeStyle=orthogonalEdgeStyle;rounded=1;orthogonalLoop=1;jettySize=auto;html=1;entryX=0;entryY=0.75;entryDx=0;entryDy=0;curved=0;" edge="1" parent="1" source="50CwbXWX_2_v5H9PCj2K-89" target="50CwbXWX_2_v5H9PCj2K-136">
          <mxGeometry relative="1" as="geometry">
            <Array as="points">
              <mxPoint x="600" y="387" />
              <mxPoint x="600" y="663" />
            </Array>
          </mxGeometry>
        </mxCell>
        <mxCell id="50CwbXWX_2_v5H9PCj2K-89" value="&lt;font style=&quot;font-size: 11px;&quot;&gt;Workday cloud&lt;/font&gt;&lt;div style=&quot;font-size: 11px;&quot;&gt;&lt;font style=&quot;font-size: 11px;&quot;&gt;Transform Studio&lt;/font&gt;&lt;/div&gt;" style="verticalLabelPosition=bottom;html=1;verticalAlign=top;align=center;strokeColor=none;fillColor=#00BEF2;shape=mxgraph.azure.cloud_service;" vertex="1" parent="1">
          <mxGeometry x="516.93" y="366.55" width="50" height="40" as="geometry" />
        </mxCell>
        <mxCell id="50CwbXWX_2_v5H9PCj2K-90" value="" style="shape=image;html=1;verticalAlign=top;verticalLabelPosition=bottom;labelBackgroundColor=#ffffff;imageAspect=0;aspect=fixed;image=https://cdn1.iconfinder.com/data/icons/hawcons/32/699265-icon-37-file-xml-128.png" vertex="1" parent="1">
          <mxGeometry x="430" y="406" width="40" height="40" as="geometry" />
        </mxCell>
        <mxCell id="50CwbXWX_2_v5H9PCj2K-99" value="&lt;font face=&quot;Helvetica&quot;&gt;7 Separate API push to BIPO API end points for each groups of data&lt;/font&gt;" style="text;html=1;align=center;verticalAlign=middle;whiteSpace=wrap;rounded=0;fillColor=#fff2cc;strokeColor=none;" vertex="1" parent="1">
          <mxGeometry x="659.79" y="254" width="219.75" height="38" as="geometry" />
        </mxCell>
        <mxCell id="50CwbXWX_2_v5H9PCj2K-120" value="" style="shape=cylinder3;whiteSpace=wrap;html=1;boundedLbl=1;backgroundOutline=1;size=15;strokeColor=none;" vertex="1" parent="1">
          <mxGeometry x="532.67" y="-380" width="60" height="80" as="geometry" />
        </mxCell>
        <mxCell id="50CwbXWX_2_v5H9PCj2K-121" value="" style="shape=image;verticalLabelPosition=bottom;labelBackgroundColor=default;verticalAlign=top;aspect=fixed;imageAspect=0;image=https://cdn.freelogovectors.net/wp-content/uploads/2020/09/kainos-logo.png;" vertex="1" parent="1">
          <mxGeometry x="-780" y="-274.85" width="195" height="44.85" as="geometry" />
        </mxCell>
        <mxCell id="50CwbXWX_2_v5H9PCj2K-122" value="&lt;b&gt;&lt;font style=&quot;font-size: 16px;&quot;&gt;Solution Overview (Workday Perspective)&lt;/font&gt;&lt;/b&gt;" style="text;html=1;align=center;verticalAlign=middle;whiteSpace=wrap;rounded=0;fillColor=#660066;fontColor=#ffffff;strokeColor=#432D57;" vertex="1" parent="1">
          <mxGeometry x="-850" y="-190" width="2320" height="54.89" as="geometry" />
        </mxCell>
        <mxCell id="50CwbXWX_2_v5H9PCj2K-123" value="Designed by your Workday Partner" style="text;html=1;align=center;verticalAlign=middle;whiteSpace=wrap;rounded=0;" vertex="1" parent="1">
          <mxGeometry x="-785" y="-230.00000000000003" width="200" height="30" as="geometry" />
        </mxCell>
        <mxCell id="50CwbXWX_2_v5H9PCj2K-124" value="" style="shape=image;verticalLabelPosition=bottom;labelBackgroundColor=default;verticalAlign=top;aspect=fixed;imageAspect=0;image=https://fluidsandlubricants.files.wordpress.com/2024/01/image-7.png;" vertex="1" parent="1">
          <mxGeometry x="176" y="-298.43" width="204.26" height="100" as="geometry" />
        </mxCell>
        <mxCell id="50CwbXWX_2_v5H9PCj2K-125" value="&lt;b&gt;LEGENDS&lt;/b&gt;" style="text;html=1;align=center;verticalAlign=middle;whiteSpace=wrap;rounded=0;" vertex="1" parent="1">
          <mxGeometry x="-820" y="-135.11" width="200" height="30" as="geometry" />
        </mxCell>
        <mxCell id="50CwbXWX_2_v5H9PCj2K-126" value="" style="endArrow=classic;html=1;rounded=0;" edge="1" parent="1">
          <mxGeometry width="50" height="50" relative="1" as="geometry">
            <mxPoint x="-740" y="-90" as="sourcePoint" />
            <mxPoint x="-535" y="-90" as="targetPoint" />
          </mxGeometry>
        </mxCell>
        <mxCell id="50CwbXWX_2_v5H9PCj2K-127" value="Workday Integrations" style="edgeLabel;html=1;align=center;verticalAlign=middle;resizable=0;points=[];" vertex="1" connectable="0" parent="50CwbXWX_2_v5H9PCj2K-126">
          <mxGeometry x="-0.0805" y="5" relative="1" as="geometry">
            <mxPoint x="-2" y="5" as="offset" />
          </mxGeometry>
        </mxCell>
        <mxCell id="50CwbXWX_2_v5H9PCj2K-128" value="" style="endArrow=classic;html=1;rounded=0;dashed=1;" edge="1" parent="1">
          <mxGeometry width="50" height="50" relative="1" as="geometry">
            <mxPoint x="-740" y="-60" as="sourcePoint" />
            <mxPoint x="-535" y="-60" as="targetPoint" />
          </mxGeometry>
        </mxCell>
        <mxCell id="50CwbXWX_2_v5H9PCj2K-129" value="Manual Process" style="edgeLabel;html=1;align=center;verticalAlign=middle;resizable=0;points=[];" vertex="1" connectable="0" parent="50CwbXWX_2_v5H9PCj2K-128">
          <mxGeometry x="-0.0805" y="5" relative="1" as="geometry">
            <mxPoint x="-2" y="5" as="offset" />
          </mxGeometry>
        </mxCell>
        <mxCell id="50CwbXWX_2_v5H9PCj2K-130" value="" style="shape=cylinder3;whiteSpace=wrap;html=1;boundedLbl=1;backgroundOutline=1;size=15;strokeColor=none;" vertex="1" parent="1">
          <mxGeometry x="131" y="1050" width="60" height="80" as="geometry" />
        </mxCell>
        <mxCell id="50CwbXWX_2_v5H9PCj2K-131" value="Worker Address" style="shape=image;verticalLabelPosition=bottom;labelBackgroundColor=default;verticalAlign=top;aspect=fixed;imageAspect=0;image=https://miro.medium.com/v2/resize:fit:1200/1*J3G3akaMpUOLegw0p0qthA.png;" vertex="1" parent="1">
          <mxGeometry x="640" y="314.1" width="74.72" height="42.45" as="geometry" />
        </mxCell>
        <mxCell id="50CwbXWX_2_v5H9PCj2K-132" value="Worker Personal Data" style="shape=image;verticalLabelPosition=bottom;labelBackgroundColor=default;verticalAlign=top;aspect=fixed;imageAspect=0;image=https://miro.medium.com/v2/resize:fit:1200/1*J3G3akaMpUOLegw0p0qthA.png;" vertex="1" parent="1">
          <mxGeometry x="640" y="376.06000000000006" width="74.72" height="42.45" as="geometry" />
        </mxCell>
        <mxCell id="50CwbXWX_2_v5H9PCj2K-133" value="Hires Data" style="shape=image;verticalLabelPosition=bottom;labelBackgroundColor=default;verticalAlign=top;aspect=fixed;imageAspect=0;image=https://miro.medium.com/v2/resize:fit:1200/1*J3G3akaMpUOLegw0p0qthA.png;" vertex="1" parent="1">
          <mxGeometry x="640" y="438.26000000000005" width="74.72" height="42.45" as="geometry" />
        </mxCell>
        <mxCell id="50CwbXWX_2_v5H9PCj2K-134" value="Workers ID data" style="shape=image;verticalLabelPosition=bottom;labelBackgroundColor=default;verticalAlign=top;aspect=fixed;imageAspect=0;image=https://miro.medium.com/v2/resize:fit:1200/1*J3G3akaMpUOLegw0p0qthA.png;" vertex="1" parent="1">
          <mxGeometry x="640" y="502.85" width="74.72" height="42.45" as="geometry" />
        </mxCell>
        <mxCell id="50CwbXWX_2_v5H9PCj2K-135" value="Worker Org Assignment Data" style="shape=image;verticalLabelPosition=bottom;labelBackgroundColor=default;verticalAlign=top;aspect=fixed;imageAspect=0;image=https://miro.medium.com/v2/resize:fit:1200/1*J3G3akaMpUOLegw0p0qthA.png;" vertex="1" parent="1">
          <mxGeometry x="645.28" y="564.62" width="74.72" height="42.45" as="geometry" />
        </mxCell>
        <mxCell id="50CwbXWX_2_v5H9PCj2K-136" value="Worker Allowances Data" style="shape=image;verticalLabelPosition=bottom;labelBackgroundColor=default;verticalAlign=top;aspect=fixed;imageAspect=0;image=https://miro.medium.com/v2/resize:fit:1200/1*J3G3akaMpUOLegw0p0qthA.png;" vertex="1" parent="1">
          <mxGeometry x="645.28" y="630.84" width="74.72" height="42.45" as="geometry" />
        </mxCell>
      </root>
    </mxGraphModel>
  </diagram>
</mxfile>
